<svg id="visual" viewBox="0 0 960 540" width="960" height="540" xmlns="http://www.w3.org/2000/svg" xmlns:xlink="http://www.w3.org/1999/xlink" version="1.1"><rect x="0" y="0" width="960" height="540" fill="#dc2626"></rect><path d="M0 192L10.7 185.5C21.3 179 42.7 166 64 164.2C85.3 162.3 106.7 171.7 128 161.7C149.3 151.7 170.7 122.3 192 123.5C213.3 124.7 234.7 156.3 256 162.8C277.3 169.3 298.7 150.7 320 143.5C341.3 136.3 362.7 140.7 384 140.3C405.3 140 426.7 135 448 137.7C469.3 140.3 490.7 150.7 512 156.2C533.3 161.7 554.7 162.3 576 159.7C597.3 157 618.7 151 640 141.5C661.3 132 682.7 119 704 108.8C725.3 98.7 746.7 91.3 768 92.7C789.3 94 810.7 104 832 113.5C853.3 123 874.7 132 896 133.3C917.3 134.7 938.7 128.3 949.3 125.2L960 122L960 0L949.3 0C938.7 0 917.3 0 896 0C874.7 0 853.3 0 832 0C810.7 0 789.3 0 768 0C746.7 0 725.3 0 704 0C682.7 0 661.3 0 640 0C618.7 0 597.3 0 576 0C554.7 0 533.3 0 512 0C490.7 0 469.3 0 448 0C426.7 0 405.3 0 384 0C362.7 0 341.3 0 320 0C298.7 0 277.3 0 256 0C234.7 0 213.3 0 192 0C170.7 0 149.3 0 128 0C106.7 0 85.3 0 64 0C42.7 0 21.3 0 10.7 0L0 0Z" fill="#f9ed11" stroke-linecap="round" stroke-linejoin="miter"></path></svg>